<svg xmlns="http://www.w3.org/2000/svg" width="88.373" height="122.7" viewBox="0 0 88.373 122.7"><defs><style>.a{fill:#619b34;}.b{fill:#ff3c3c;}.c{fill:#e02d2d;}.d{fill:#fff;}.e{fill:#37b0cc;}.f{fill:#364147;}.g{opacity:0.29;}.h{opacity:0.14;}.i{fill:#1c93a0;}.j{fill:#f7c09a;}.k{fill:#dd9e73;}.l{fill:#fee6c2;}.m{fill:#ba7d54;}.n{fill:none;stroke-width:19px;}.n,.q{stroke:#fff;stroke-miterlimit:10;}.o{fill:#7eb530;}.p,.q{fill:#3db038;}.q{stroke-width:11px;}.r{fill:#246345;}.s{fill:#efde95;}.t{fill:#55ac6c;}.u{fill:#195136;}.v{fill:#48555b;}.w,.z{fill:#d8190b;}.x{fill:#fc3117;}.y{fill:#b70c08;}.z{opacity:0.61;}.aa{fill:#feebc0;opacity:0.13;}.ab{fill:#91be30;}.ac{fill:#598d3b;}.ad{fill:#5b3f33;}.ae{fill:#ff2110;}.af{fill:#db0d03;}.ag{fill:#a50000;}.ah{fill:#3b404c;}.ai{fill:#ffe3ca;}.aj{fill:#a2744d;}.ak{fill:#e82d2d;}</style></defs><g transform="translate(-1579.998 -913.3)"><ellipse class="a" cx="40.5" cy="3.5" rx="40.5" ry="3.5" transform="translate(1584 1029)"/><g transform="translate(1356.716 866.611)"><g transform="translate(225.545 46.688)"><g transform="translate(29.494)"><path class="b" d="M2030.627,349.191a11.4,11.4,0,0,0-22.767,0c0,.294.015.584.038.871,0,.008,0,.016,0,.024a12.612,12.612,0,0,0,.564,3.631c.072.25.157.511.259.784l0,.01h0c.2.553.42,1.065.642,1.53,2.27,4.943,6.764,9.738,9.879,12.69,3.114-2.952,7.609-7.747,9.879-12.69.222-.464.442-.977.642-1.53h0l0-.01c.1-.273.187-.534.259-.784a12.571,12.571,0,0,0,.564-3.631c0-.008,0-.016,0-.024C2030.613,349.775,2030.627,349.485,2030.627,349.191Z" transform="translate(-2007.86 -338.321)"/></g><g transform="translate(29.494 9.967)"><path class="c" d="M2030.59,460.684a12.622,12.622,0,0,1-.563,3.564c-.072.251-.157.511-.259.785l0,.01h0c-.2.553-.42,1.065-.642,1.53-2.27,4.943-6.764,9.738-9.879,12.69-3.115-2.952-7.609-7.747-9.879-12.69-.222-.464-.442-.977-.642-1.53h0l0-.01c-.1-.273-.187-.534-.259-.785a12.65,12.65,0,0,1-.563-3.564c-.024.3-.037.6-.037.9s.015.584.038.871c0,.008,0,.016,0,.024a12.612,12.612,0,0,0,.564,3.631c.072.25.157.511.259.785l0,.01h0c.2.553.42,1.065.642,1.53,2.27,4.943,6.764,9.738,9.879,12.69,3.114-2.952,7.609-7.747,9.879-12.69.222-.464.442-.977.642-1.53h0l0-.01c.1-.273.187-.534.259-.785a12.57,12.57,0,0,0,.564-3.631c0-.008,0-.016,0-.024.023-.288.038-.578.038-.871S2030.615,460.982,2030.59,460.684Z" transform="translate(-2007.86 -460.684)"/></g><g transform="translate(31.819 2.138)"><circle class="d" cx="7.611" cy="7.611" r="7.611" transform="translate(0 14.871) rotate(-77.685)"/></g><g transform="translate(27.594 70.673)"><g transform="translate(2.442 2.604)"><path class="e" d="M2037.578,1247.5l17.59,19.883a3.514,3.514,0,0,1-.3,4.954l-10.514,9.3a3.514,3.514,0,0,1-4.954-.3l-17.59-19.883a7.216,7.216,0,0,1-1.783-5.427l-.122-7.714-5.391-6.094,4.865-4.3,5.391,6.093,7.642,1.061A7.215,7.215,0,0,1,2037.578,1247.5Z" transform="translate(-2014.512 -1237.917)"/></g><g transform="translate(0 0)"><g transform="translate(0)"><path class="f" d="M3.9,0h.389A3.9,3.9,0,0,1,8.2,3.9v0A1.124,1.124,0,0,1,7.073,5.028H1.125A1.125,1.125,0,0,1,0,3.9v0A3.9,3.9,0,0,1,3.9,0Z" transform="matrix(0.749, -0.663, 0.663, 0.749, 0, 5.431)"/></g></g><g transform="translate(15.013 14.882)"><path class="d" d="M2176.645,1389.154l-1.177,1.041-4.786,4.234-1.177,1.041a1.99,1.99,0,0,0-.172,2.81l12.187,13.775a1.991,1.991,0,0,0,2.81.172l1.177-1.041,4.786-4.234,1.177-1.041a1.991,1.991,0,0,0,.172-2.81l-12.187-13.775A1.99,1.99,0,0,0,2176.645,1389.154Z" transform="translate(-2168.833 -1388.654)"/></g><g class="g" transform="translate(7.062 8.991)"><path class="d" d="M2074.681,1322.776a.734.734,0,0,1-1.155-.849,4.217,4.217,0,0,0-.469-2.516l-1.643-1.857a.733.733,0,1,1,1.1-.972l1.643,1.857C2075.066,1319.469,2075.288,1322.239,2074.681,1322.776Zm-.974-1.1h0Zm0,0h0Zm0,0h0Z" transform="translate(-2071.229 -1316.335)"/></g><g class="g" transform="translate(9.644 18.558)"><path class="d" d="M2122.513,1459.408a.734.734,0,0,1-1.036-.063l-17.217-19.461a5.124,5.124,0,0,1-1.279-3.179l-.056-2.164a.733.733,0,0,1,1.466-.038l.055,2.153a3.65,3.65,0,0,0,.911,2.256l17.217,19.461A.733.733,0,0,1,2122.513,1459.408Z" transform="translate(-2102.927 -1433.789)"/></g><g class="h" transform="translate(1.813 1.766)"><path class="d" d="M2011.063,1228.921l-3.06,2.707a.733.733,0,0,1-.972-1.1l3.06-2.707a.733.733,0,0,1,.972,1.1Z" transform="translate(-2006.784 -1227.639)"/></g><g transform="translate(29.817 34.688)"><path class="i" d="M2364.734,1631.8a3.5,3.5,0,0,1-1.17,2.339l-10.514,9.3a3.5,3.5,0,0,1-2.464.876,25.906,25.906,0,0,1,14.148-12.517Z" transform="translate(-2350.586 -1631.804)"/></g><g transform="translate(22.533 22.246)"><path class="e" d="M2261.156,1479.058s.176,6.544,2.333,8.982a4.2,4.2,0,1,0,6.3-5.572C2267.63,1480.031,2261.156,1479.058,2261.156,1479.058Z" transform="translate(-2261.156 -1479.058)"/></g></g><g transform="translate(7.126 35.275)"><g transform="translate(0 11.901)"><rect class="j" width="20.69" height="37.455" transform="translate(0 6.649) rotate(-18.745)"/></g><g transform="translate(19.593 8.835)"><rect class="k" width="9.541" height="37.455" transform="translate(0 3.066) rotate(-18.745)"/></g><g transform="translate(0 5.791)"><path class="l" d="M1755.863,842.476l-19.593,6.649-3.024,6.11,19.593-6.649Z" transform="translate(-1733.247 -842.476)"/></g><g transform="translate(19.593 5.791)"><path class="m" d="M1973.783,848.586l3.024-6.11,6.011,3.044Z" transform="translate(-1973.783 -842.476)"/></g><g transform="translate(0.937 0)"><rect class="j" width="20.818" height="6.115" transform="translate(0 6.69) rotate(-18.745)"/></g><g transform="translate(8.41 25.167)"><circle class="n" cx="6.556" cy="6.556" r="6.556" transform="translate(0 13.041) rotate(-84.004)"/></g></g><g transform="translate(6.208 75.396)"><g transform="translate(11.948 8.757)"><rect class="j" width="20.69" height="37.455" transform="matrix(-0.397, -0.918, 0.918, -0.397, 8.21, 33.854)"/></g><g transform="translate(8.162 0)"><rect class="k" width="9.541" height="37.455" transform="translate(3.786 23.62) rotate(-113.379)"/></g><g transform="translate(5.613 21.1)"><path class="l" d="M1790.892,1522.975l8.21,18.992,6.334,2.52-8.21-18.991Z" transform="translate(-1790.892 -1522.975)"/></g><g transform="translate(5.613 14.863)"><path class="m" d="M1797.226,1455.161l-6.334-2.52,2.549-6.237Z" transform="translate(-1790.892 -1446.403)"/></g><g transform="translate(0 21.1)"><rect class="j" width="20.818" height="6.115" transform="translate(8.261 21.536) rotate(-113.379)"/></g><g transform="translate(25.428 18.685)"><circle class="n" cx="6.556" cy="6.556" r="6.556" transform="matrix(0.994, -0.111, 0.111, 0.994, 0, 1.46)"/></g></g><g transform="translate(30.397 41.433)"><g transform="translate(0 0)"><rect class="o" width="24.7" height="40.247" transform="translate(12.587 0) rotate(18.224)"/></g><g transform="translate(23.461 7.725)"><rect class="p" width="4.838" height="40.247" transform="matrix(0.95, 0.313, -0.313, 0.95, 12.587, 0)"/></g><g transform="translate(9.427 14.38)"><circle class="q" cx="8.104" cy="8.104" r="8.104" transform="translate(0 1.017) rotate(-3.597)"/></g></g><g transform="translate(48.016 46.494)"><path class="f" d="M2612.549,909.4l-.639,2.218a.527.527,0,0,0,.238.6l4.762,2.823a.528.528,0,0,0,.641-.079l1.639-1.626a.39.39,0,0,0-.076-.611l-5.992-3.551A.389.389,0,0,0,2612.549,909.4Z" transform="translate(-2581.209 -909.117)"/><path class="r" d="M2493.477,983.882l-8.82-5.228,7.761-9.706.843-1.055.736-.921,5.245,3.109-.455,1.088-.521,1.246Z" transform="translate(-2464.341 -962.26)"/><rect class="r" width="3.709" height="8.569" rx="1.855" transform="translate(27.998 5.087) rotate(-59.342)"/><path class="r" d="M2262.731,1085.473l-1.9-1.127a8.682,8.682,0,0,0-11.9,3.042l-13.128,22.146a4.016,4.016,0,0,0,.846,5.107l11.107,6.584a4.016,4.016,0,0,0,4.886-1.709l13.128-22.147A8.682,8.682,0,0,0,2262.731,1085.473Z" transform="translate(-2235.243 -1068.957)"/><path class="s" d="M7.134,0h0a7.134,7.134,0,0,1,7.134,7.134v3.949a7.134,7.134,0,0,1-7.134,7.134h0A7.134,7.134,0,0,1,0,11.083V7.134A7.134,7.134,0,0,1,7.134,0Z" transform="translate(14.631 22.046) rotate(30.658)"/><path class="t" d="M2532.739,988.044l-6.122,8.285a.31.31,0,0,0,.091.45l.9.531a.309.309,0,0,0,.424-.108l5.226-8.816a.309.309,0,0,0-.108-.424h0A.309.309,0,0,0,2532.739,988.044Z" transform="translate(-2502.828 -981.499)"/><path class="t" d="M2611.409,952.492l-4.872-2.888a.344.344,0,0,1-.121-.471h0a.344.344,0,0,1,.471-.12l4.872,2.888a.344.344,0,0,1,.12.471h0A.343.343,0,0,1,2611.409,952.492Z" transform="translate(-2576.139 -945.719)"/><path class="t" d="M2438.542,1109.095a7.774,7.774,0,0,0-3.689,2.788.4.4,0,0,0,.123.585l2.114,1.253a.4.4,0,0,0,.539-.117,12.339,12.339,0,0,1,3.532-3.547.4.4,0,0,0,.013-.7h0A3.106,3.106,0,0,0,2438.542,1109.095Z" transform="translate(-2418.523 -1092.64)"/><path class="u" d="M2585.783,982.8l-5.849-3.467.843-1.055,5.527,3.276Z" transform="translate(-2551.857 -972.643)"/><rect class="t" width="3.398" height="4.748" rx="1.699" transform="matrix(0.86, 0.51, -0.51, 0.86, 4.397, 39.371)"/><path class="v" d="M2631.719,922.667l-4.539-2.691a.326.326,0,0,1-.115-.447h0a.326.326,0,0,1,.447-.114l4.539,2.69a.325.325,0,0,1,.114.447h0A.325.325,0,0,1,2631.719,922.667Z" transform="translate(-2595.108 -918.535)"/></g><g transform="translate(33.512 59.485)"><rect class="w" width="2.281" height="4.453" transform="translate(0.433 0.965) rotate(-25.034)"/><path class="x" d="M2.96,0H4.7a2.96,2.96,0,0,1,2.96,2.96v0A2.96,2.96,0,0,1,4.7,5.92H2.96A2.96,2.96,0,0,1,0,2.96v0A2.96,2.96,0,0,1,2.96,0Z" transform="translate(0 5.942) rotate(-25.034)"/><rect class="y" width="11.404" height="2.321" rx="1.161" transform="translate(12.935 38.065) rotate(-25.034)"/><path class="w" d="M2081.212,1144.6a1.4,1.4,0,0,0-1.478-.182l-2.806,1.311-2.806,1.31a1.4,1.4,0,0,0-.809,1.25l-.081,5.407,6.088-2.843,6.088-2.844Z" transform="translate(-2071.925 -1138.125)"/><path class="x" d="M2095.52,1209.438l-10.043,4.69a1.177,1.177,0,0,1-1.565-.569l-10.608-22.713a1.178,1.178,0,0,1,.569-1.565l10.043-4.69a1.177,1.177,0,0,1,1.565.569l10.608,22.714A1.178,1.178,0,0,1,2095.52,1209.438Z" transform="translate(-2071.889 -1175.041)"/><rect class="z" width="4.643" height="27.424" transform="translate(7.005 11.895) rotate(-25.034)"/><rect class="aa" width="1.751" height="27.424" transform="matrix(0.906, -0.423, 0.423, 0.906, 2.135, 14.169)"/><rect class="aa" width="0.692" height="27.424" transform="matrix(0.906, -0.423, 0.423, 0.906, 4.497, 13.066)"/><rect class="z" width="1.711" height="3.626" transform="translate(3.887 4.127) rotate(-25.034)"/><rect class="aa" width="0.855" height="3.626" transform="translate(1.107 5.425) rotate(-25.034)"/><rect class="y" width="2.281" height="1.004" transform="translate(1.839 3.976) rotate(-25.034)"/></g><g transform="translate(34.842 5.161)"><path class="b" d="M2079.544,401.676a6.036,6.036,0,1,0,6.036,6.036A6.043,6.043,0,0,0,2079.544,401.676Zm0,11.184a5.147,5.147,0,1,1,5.147-5.147A5.153,5.153,0,0,1,2079.544,412.86Z" transform="translate(-2073.508 -401.676)"/><path class="b" d="M2114.546,444.036a.487.487,0,0,0-.686.062l-3.439,4.123-1.559-1.577a.487.487,0,0,0-.693.685l1.7,1.714a.814.814,0,0,0,1.121.016l.02-.019,3.6-4.319A.487.487,0,0,0,2114.546,444.036Z" transform="translate(-2105.217 -440.482)"/></g><g transform="translate(0 48.653)"><g transform="translate(5.18)"><path class="ab" d="M1712.2,946.726c.07.015.11.021.11.021s3.286.1,3.623-3.866-2.679-7.256-2.679-7.256-3.527,2.732-3.863,6.7C1709.089,945.857,1711.632,946.6,1712.2,946.726Z" transform="translate(-1709.363 -935.625)"/></g><path class="ac" d="M1744.158,946.726c.07.015.11.021.11.021s3.286.1,3.623-3.866-2.68-7.256-2.68-7.256Z" transform="translate(-1736.143 -935.625)"/><g transform="translate(0 7.298)"><path class="ad" d="M1655.515,1031.467c-4.94-4.512-9.364-4.1-9.364-4.1a1.254,1.254,0,0,1,.9-2.144s5.762.6,10.338,6.961c4.451,6.187.009,1.19.009,1.19s-.574-.669-1.515-1.566l0,0C1655.764,1031.7,1655.642,1031.583,1655.515,1031.467Z" transform="translate(-1645.766 -1025.219)"/></g><path class="ae" d="M1682.419,1018.344a8.754,8.754,0,0,0-4.35,2.486l-.008.008a5.549,5.549,0,0,1-7,5.575l-.01.006a8.754,8.754,0,0,0-3.4,3.682c-1.914,3.657.2,8.7,2.868,11.5,2.034,2.133,8.035,6.22,13.334,5.447,5.154-.751,6.077-4.123,6.077-4.123h0l.475.6,2.019-1.608a8.538,8.538,0,0,0,2.885-3.988c1.939-4.991-.7-11.755-2.323-14.215C1690.858,1020.488,1686.412,1017.3,1682.419,1018.344Z" transform="translate(-1665.192 -1011.42)"/><path class="af" d="M1671.059,1108.116l-.01.006a8.753,8.753,0,0,0-3.4,3.682c-1.914,3.656.2,8.7,2.868,11.5,2.034,2.133,8.035,6.22,13.334,5.447a8.535,8.535,0,0,0,4.533-1.918l2.019-1.608-.475-.6-13.958-17.529A9.565,9.565,0,0,0,1671.059,1108.116Z" transform="translate(-1665.192 -1093.122)"/><path class="d" d="M1845.549,1040.357s-.621.4-.583.784.2.71,1.482.471a7.583,7.583,0,0,1,6.4,1.667c.932.71,1.4.028.664-.9C1852.854,1041.561,1849.115,1038.406,1845.549,1040.357Z" transform="translate(-1828.739 -1031.251)"/><path class="d" d="M1958.5,1094.48s-.209-.557.306-.712,1.217,1.181,1.244,1.563a.545.545,0,0,1-.488.644C1959.219,1096.055,1958.668,1095.068,1958.5,1094.48Z" transform="translate(-1932.986 -1080.875)"/><path class="ag" d="M1718.795,1270s.38.623-.205.927-1.735-1.143-1.856-1.6a.669.669,0,0,1,.44-.887C1717.565,1268.265,1718.455,1269.327,1718.795,1270Z" transform="translate(-1710.917 -1241.313)"/><path class="ag" d="M1754.254,1304.223h0a21.284,21.284,0,0,1-2.971-1.644c-1.138-.721-1.993-1.427-2.652-.888-1.328,1.085,3.31,3.153,5.743,3.831,2.043.571,5.106.67,5.462.078A15.648,15.648,0,0,1,1754.254,1304.223Z" transform="translate(-1740.037 -1271.699)"/></g><g transform="translate(16.754 48.118)"><path class="ah" d="M1856.756,959.25l-5.309-3.065,15.431-26.728a.806.806,0,0,1,1.1-.3l3.912,2.259a.807.807,0,0,1,.3,1.1Z" transform="translate(-1851.447 -929.053)"/><g transform="translate(26.802)"><path class="ah" d="M2196.025,959.25l5.309-3.065L2185.9,929.456a.806.806,0,0,0-1.1-.3l-3.912,2.259a.806.806,0,0,0-.3,1.1Z" transform="translate(-2180.485 -929.053)"/></g></g></g><g transform="translate(223.283 120.992)"><g transform="translate(41.966 0.17)"><path class="ai" d="M2158.543,1252.615l-20.679.686-4.665,4.972,20.679-.686Z" transform="translate(-2133.199 -1252.615)"/></g><g transform="translate(62.645 0.17)"><path class="aj" d="M2387.069,1257.587l4.665-4.972,4.871,4.655Z" transform="translate(-2387.069 -1252.615)"/></g><path class="b" d="M1701.649,1250.524h-81.636a2.024,2.024,0,0,0-2.023,2.024v3.343a2.023,2.023,0,0,0,2.023,2.024h2.639l.4,2.5,5.236,33.012a2.609,2.609,0,0,0,2.576,2.2h59.94a2.609,2.609,0,0,0,2.576-2.2l5.236-33.012.4-2.5h2.639a2.023,2.023,0,0,0,2.023-2.024v-3.343A2.024,2.024,0,0,0,1701.649,1250.524Zm-68.143,42.051h-2.168v-7.917h2.168Zm0-10.084h-2.168v-14.02h2.168Zm0-16.187h-2.168v-8.389h2.168Zm4.734,26.271h-2.167v-7.917h2.167Zm0-10.084h-2.167v-14.02h2.167Zm0-16.187h-2.167v-8.389h2.167Zm4.735,26.271h-2.168v-7.917h2.168Zm0-10.084h-2.168v-14.02h2.168Zm0-16.187h-2.168v-8.389h2.168Zm4.734,26.271h-2.167v-7.917h2.167Zm0-10.084h-2.167v-14.02h2.167Zm0-16.187h-2.167v-8.389h2.167Zm4.735,26.271h-2.168v-7.917h2.168Zm0-26.271h-2.168v-8.389h2.168Zm4.734,26.271h-2.167v-7.917h2.167Zm0-26.271h-2.167v-8.389h2.167Zm4.736,26.271h-2.168v-7.917h2.168Zm0-26.271h-2.168v-8.389h2.168Zm4.734,26.271h-2.167v-7.917h2.167Zm0-26.271h-2.167v-8.389h2.167Zm4.735,26.271h-2.168v-7.917h2.168Zm0-26.271h-2.168v-8.389h2.168Zm4.734,26.271h-2.166v-7.917h2.166Zm0-10.084h-2.166v-14.02h2.166Zm0-16.187h-2.166v-8.389h2.166Zm4.736,26.271h-2.168v-7.917h2.168Zm0-10.084h-2.168v-14.02h2.168Zm0-16.187h-2.168v-8.389h2.168Zm4.734,26.271h-2.166v-7.917h2.166Zm0-10.084h-2.166v-14.02h2.166Zm0-16.187h-2.166v-8.389h2.166Zm4.736,26.271h-2.168v-7.917h2.168Zm0-10.084h-2.168v-14.02h2.168Zm0-16.187h-2.168v-8.389h2.168Z" transform="translate(-1617.99 -1250.524)"/><g transform="translate(15.516 7.39)"><rect class="ak" width="2.568" height="2.498"/></g><g transform="translate(20.251 7.39)"><rect class="ak" width="2.568" height="2.498"/></g><g transform="translate(24.986 7.39)"><rect class="ak" width="2.568" height="2.498"/></g><g transform="translate(29.72 7.39)"><rect class="ak" width="2.568" height="2.498"/></g><g transform="translate(34.456 7.39)"><rect class="ak" width="2.568" height="2.498"/></g><g transform="translate(39.19 7.39)"><rect class="ak" width="2.568" height="2.498"/></g><g transform="translate(43.925 7.39)"><rect class="ak" width="2.568" height="2.498"/></g><g transform="translate(48.659 7.39)"><rect class="ak" width="2.568" height="2.498"/></g><g transform="translate(53.395 7.39)"><rect class="ak" width="2.568" height="2.498"/></g><g transform="translate(58.129 7.39)"><rect class="ak" width="2.568" height="2.498"/></g><g transform="translate(62.864 7.39)"><rect class="ak" width="2.568" height="2.498"/></g><g transform="translate(67.599 7.39)"><rect class="ak" width="2.568" height="2.498"/></g><g transform="translate(72.334 7.39)"><path class="ak" d="M2514.7,1341.248l-.4,2.5h-8.29v-2.5Z" transform="translate(-2506.014 -1341.248)"/></g><g transform="translate(4.663 7.39)"><path class="ak" d="M1675.232,1341.248l.4,2.5h8.29v-2.5Z" transform="translate(-1675.232 -1341.248)"/></g><g transform="translate(32.288 17.947)"><path class="ak" d="M2033.637,1472.109a.6.6,0,0,1,.594.594v10.321a.6.6,0,0,1-.594.594h-17.408a.6.6,0,0,1-.594-.594V1472.7a.6.6,0,0,1,.594-.594h17.408m0-1.255h-17.408a1.85,1.85,0,0,0-1.85,1.849v10.321a1.85,1.85,0,0,0,1.85,1.849h17.408a1.849,1.849,0,0,0,1.849-1.849V1472.7a1.849,1.849,0,0,0-1.849-1.849Z" transform="translate(-2014.379 -1470.853)"/></g></g></g></g></svg>