<svg xmlns="http://www.w3.org/2000/svg" width="254.533" height="174.313" viewBox="0 0 254.533 174.313"><defs><style>.a{fill:#fff;}.b{fill:#619b34;}.c{fill:#004;}.aa,.c,.d,.f,.g,.h,.i,.k,.l{fill-rule:evenodd;}.d{fill:#a9c2c2;}.e{fill:#7e9191;}.g{fill:#9f0b0f;}.h,.j{fill:#b0040a;}.i,.r{fill:#ca0007;}.k{fill:#f1cf00;}.l{fill:#9dc6c6;}.m{fill:#edb38c;}.n{fill:#191213;}.o{fill:#2e4c5e;}.p{fill:#281b1c;}.q{fill:#a11211;}.s{fill:#3d5e77;}.t{fill:#4a6d82;}.u{fill:#9e5e32;}.v{fill:#c19272;}.w{fill:#ceeae8;}.x{fill:#b7cecc;}.y{fill:#681616;}.z{fill:#4c3729;}.aa{fill:#b10b09;}</style></defs><g transform="translate(-207 -869.687)"><path class="a" d="M306.284,133.842h18.1s.684-.661.506-1.194a2.881,2.881,0,0,0-2.554-1.27,1.9,1.9,0,0,0,.445-1.925,1.952,1.952,0,0,0-2.944-.614,2.446,2.446,0,0,0-1.024,1.761s1.024-2.621-.983-3.318a2.6,2.6,0,0,0-3.482,2.5,2.065,2.065,0,0,0-2.458-1.188,1.553,1.553,0,0,0-1.106,2.366s-.246-.876-2.007-.474a1.249,1.249,0,0,0-.942,1.918,2.2,2.2,0,0,0-2.007.516C305.014,133.754,306.284,133.842,306.284,133.842Z" transform="translate(136.609 743.416)"/><ellipse class="b" cx="99.5" cy="12.5" rx="99.5" ry="12.5" transform="translate(207 1019)"/><path class="c" d="M246.48,155.72a26,26,0,1,1-26,26,26,26,0,0,1,26-26m0,6.67a19.29,19.29,0,1,0,19.29,19.29,19.29,19.29,0,0,0-19.29-19.29" transform="translate(5 824)"/><path class="d" d="M358.7,187.54a5.86,5.86,0,1,0-5.86-5.86,5.86,5.86,0,0,0,5.86,5.86Z" transform="translate(5 824)"/><path class="d" d="M362.84,177.53a5.86,5.86,0,1,1-8.29,0A5.86,5.86,0,0,1,362.84,177.53Z" transform="translate(5 824)"/><path class="d" d="M364.56,181.68a5.86,5.86,0,1,1-5.86-5.86,5.86,5.86,0,0,1,5.86,5.86Z" transform="translate(5 824)"/><path class="d" d="M362.84,185.82a5.86,5.86,0,1,1,0-8.29,5.86,5.86,0,0,1,0,8.29Z" transform="translate(5 824)"/><path class="d" d="M358.7,187.54a5.86,5.86,0,1,1,5.86-5.86,5.86,5.86,0,0,1-5.86,5.86Z" transform="translate(5 824)"/><path class="d" d="M354.55,185.82a5.86,5.86,0,1,1,8.29,0A5.86,5.86,0,0,1,354.55,185.82Z" transform="translate(5 824)"/><path class="d" d="M352.84,181.68a5.86,5.86,0,1,1,5.86,5.86,5.86,5.86,0,0,1-5.86-5.86Z" transform="translate(5 824)"/><path class="c" d="M358.7,155.72a26,26,0,1,1-26,26,26,26,0,0,1,26-26m0,6.67a19.175,19.175,0,1,0,.01,0" transform="translate(5 824)"/><path class="d" d="M358.7,162.39a19.29,19.29,0,1,1-19.29,19.29,19.29,19.29,0,0,1,19.29-19.29m0,7.26a12,12,0,1,0,12,12,12,12,0,0,0-12-12" transform="translate(5 824)"/><path class="e" d="M358.7,195.32a13.65,13.65,0,1,1,13.64-13.64,13.65,13.65,0,0,1-13.64,13.64m0-31.31a17.675,17.675,0,1,0,0-.01" transform="translate(5 824)"/><path class="d" d="M356.34,177.4a4.582,4.582,0,0,1,1-.41l.64-8.41h1.43l.65,8.41a4.712,4.712,0,0,1,1,.41l6.41-5.49.5.5.51.51-5.49,6.4a5.131,5.131,0,0,1,.41,1l8.41.64v1.43l-8.41.65a5.312,5.312,0,0,1-.41,1l5.49,6.4-.51.51-.51.5-6.4-5.48a5.312,5.312,0,0,1-1,.41l-.65,8.41H358l-.64-8.41a5.132,5.132,0,0,1-1-.41l-6.4,5.48-.5-.5-.51-.51,5.49-6.4a4.708,4.708,0,0,1-.41-1l-8.41-.65V181l8.41-.64a4.581,4.581,0,0,1,.41-1l-5.49-6.4.51-.51.5-.5Z" transform="translate(5 824)"/><path class="f" d="M336.53,148.88l4.71-2.71,19.62,34.43c.74,1.3.06,2.66-1,3.71s-3,.31-3.71-1Z" transform="translate(5 824)"/><path class="g" d="M358.7,148.48a33.08,33.08,0,0,1,8.73,1.17,2.37,2.37,0,0,1,1.06,4L330.64,191.5a2.37,2.37,0,0,1-4-1.06,33.23,33.23,0,0,1,32-41.93Z" transform="translate(5 824)"/><path class="h" d="M245.49,142l51.49-.75c-9.72,19.09-10.15,32.9,0,44.41H273.39L271.72,184H214.89a4.81,4.81,0,0,1-4.78-5.46c2.59-19.39,14.44-33.78,33.28-34.78C245.64,143.65,245.91,142.51,245.49,142Z" transform="translate(5 824)"/><path class="i" d="M289.17,183.07h2.6c-7.92-12.33-5-26,1-39.17h-2a4.25,4.25,0,0,0-4,2.74c-4.5,11.38-6.31,23-1.61,33.8a4.25,4.25,0,0,0,4.01,2.63Z" transform="translate(5 824)"/><path class="i" d="M272.9,184.52h23c7.3,0,17.11,1,21.7-6.57l20.15-33.46c2.56-4.26,2.59-7.5,1.2-13.29l-4.6-19.2c-.41-1.7-.6-3,1-3h2.12a4.28,4.28,0,0,1,4.2,3.3l4.06,16.7c.83,3.39,3.62,14.6,1.84,17.6L322.91,188H272.42A32.735,32.735,0,0,0,272.9,184.52Z" transform="translate(5 824)"/><rect class="j" width="51.58" height="3.47" rx="0.61" transform="translate(276.41 1011.689)"/><rect width="54.9" height="9.51" rx="1.14" transform="translate(248.43 956.49)"/><path class="k" d="M349.42,116.14c1.31-.11,2.61,2.6,2.9,6.06s-.53,6.35-1.84,6.46-2.61-2.6-2.9-6.06S348.11,116.25,349.42,116.14Z" transform="translate(5 824)"/><path class="g" d="M348.89,115.31h0a.87.87,0,0,1,1,.76l1.42,12.42a.86.86,0,0,1-.76.95h0c-4.42.5-8.36-2.25-8.8-6.16S344.48,115.82,348.89,115.31Z" transform="translate(5 824)"/><path class="l" d="M347.5,115.58l1.81,13.93q.58,0,1.2-.06h0a.86.86,0,0,0,.76-.95l-1.42-12.42a.87.87,0,0,0-1-.76h0a10.351,10.351,0,0,0-1.35.26Z" transform="translate(5 824)"/><rect width="2.86" height="11.72" rx="0.93" transform="translate(330.42 934.553) rotate(-75.59)"/><line class="m" x1="0.05" y2="0.06" transform="translate(343.02 932.85)"/><path class="n" d="M297.34,177.58a12.94,12.94,0,0,0-1,2.73,3.69,3.69,0,0,0,.41,2.82c1,1.54,3.24,1.58,5.1,1.46l2.73-.18c1.16-.07,2.52-.26,3.1-1.27s.17-2-.13-3a23.1,23.1,0,0,1-1-7,5.13,5.13,0,0,0-.22-2.07,3.22,3.22,0,0,0-2.2-1.77c-2.13-.58-3.74-.53-4.32,1.52a46.489,46.489,0,0,1-2.47,6.76Z" transform="translate(5 824)"/><path class="o" d="M304.59,145.94a4.27,4.27,0,0,1,1.13,1.75,3.61,3.61,0,0,1-.16,1.92c-.81,2.74-2.61,5.23-2.77,8.09a18.49,18.49,0,0,1-.1,2.58,8.56,8.56,0,0,1-1.18,2.64l-1.95,3.27a4,4,0,0,0-.77,2.2c.09,1.48,1.71,2.33,3.12,2.8.81.27,1.84.47,2.44-.14a2.62,2.62,0,0,0,.48-.94q3.66-10.89,7.34-21.79c.61-1.82,1.22-3.81.55-5.6-.75-2-2.8-3.08-4.7-4l-5.28-2.59c-1.54-.75-3.63-1.42-4.76-.12-1.58,1.8-.05,3.27,1.23,4.23C301.2,141.73,302.91,144.1,304.59,145.94Z" transform="translate(5 824)"/><path class="p" d="M301,178.24a10.3,10.3,0,0,0-1.06,4.8,1.59,1.59,0,0,0,.39,1,1.68,1.68,0,0,0,.82.38,36.28,36.28,0,0,0,15.82.62,4.91,4.91,0,0,0,2.15-.79,1.82,1.82,0,0,0,.67-2c-.38-.87-1.49-1.07-2.44-1.18a12.8,12.8,0,0,1-4.88-1.29,5,5,0,0,1-2.7-4c0-1.29.56-2.84-.42-3.69a2.86,2.86,0,0,0-1.73-.5c-2-.14-3.1-.58-4.33.92C302.17,173.72,301.59,176.63,301,178.24Z" transform="translate(5 824)"/><path class="q" d="M275.07,93.29c-4.37,8.22-6.58,17.39-8.75,26.44a4.92,4.92,0,0,0-.16,2.43,1.69,1.69,0,0,0,1.8,1.32q0,1.17,0,2.34a6.62,6.62,0,0,0,4.95,2.55,19.689,19.689,0,0,0,5.7-.64l12.19-2.57a3.73,3.73,0,0,0,2.22-1c.52-.66.33-1.88-.49-2,2.88-.51,4.09-3.9,4.76-6.75s1.35-5.73,2-8.59A64.16,64.16,0,0,0,301.56,93c.05-3.45-.29-7.4,2.16-9.83.76-.76,1.78-1.35,2.16-2.36.58-1.55-.62-3.15-1.74-4.36l-4.39-4.75a1.37,1.37,0,0,0-.85-.55,1.43,1.43,0,0,0-1,.6,17.76,17.76,0,0,1-6.25,4.57,32.12,32.12,0,0,0-6.79,4.52C281.08,84,276.94,88.62,275.07,93.29Z" transform="translate(5 824)"/><path class="q" d="M282.87,99.44c-.59,5.15.67,10.79,4.49,14.3a16.62,16.62,0,0,0,9.51,3.91,49.24,49.24,0,0,0,10.43-.33l.65-1.18,2.48.86.9-1.08a1.9,1.9,0,0,0,2.24,1.18,20.51,20.51,0,0,1,2.06-6.88c-6.3-1.24-12.68-2.51-18.44-5.36a4.14,4.14,0,0,0-2.9-.67,48.5,48.5,0,0,0,.61-12.73c-.17-2-.51-4.15-1.81-5.7C287,78.45,283.25,96.08,282.87,99.44Z" transform="translate(5 824)"/><path class="r" d="M295.23,88.82a10.531,10.531,0,0,0-.78-2.87C294,85,293,84.13,292,84.46c-1.19.39-1.23,2.05-1,3.3q.89,5.44,1.78,10.89c.42,2.58.84,5.28,0,7.76l1.66-.17.12,1.84a66.831,66.831,0,0,0,13.15,2.44c-.09-1.65-2.12-2.3-3.72-2.67a25.27,25.27,0,0,1-5.67-1.92c-2.19-1.11-1.91-1.51-1.93-4A87.11,87.11,0,0,0,295.23,88.82Z" transform="translate(5 824)"/><path class="r" d="M301.78,82.78a14.941,14.941,0,0,0,2.58-2.38l-2.31-2.9a1.35,1.35,0,0,0-.41-.38.94.94,0,0,0-1,.23,2.32,2.32,0,0,0-.45,2.58,6.8,6.8,0,0,0,1.68,2.21" transform="translate(5 824)"/><path class="r" d="M292.8,121.55a4.14,4.14,0,0,1-3,.64,3.11,3.11,0,0,1-1.49-.33,1.05,1.05,0,0,1-.46-1.33,1.54,1.54,0,0,1,1.3-.53,6.93,6.93,0,0,0,2.08-.29,2.12,2.12,0,0,0,1.42-1.44,1.13,1.13,0,0,1,1.5.69,1.83,1.83,0,0,1-.47,1.74,5.32,5.32,0,0,1-1.54,1.07" transform="translate(5 824)"/><path class="s" d="M273.19,133.71c2.72,1.56,5.93,1.95,9,2.31l10.41,1.21c4.81.56,10.15,1.41,13.08,5.25a2.24,2.24,0,0,0,1.1,1,3.23,3.23,0,0,0,1.58-.34c.52-.15,1.27,0,1.32.55a2.6,2.6,0,0,0-.83,2.06l1.18-.2a3.66,3.66,0,0,1-.91,2.7,19.111,19.111,0,0,0-2.93,8.6c-.2,2.16-.06,4.48-1.19,6.34-.51.84-1.25,1.52-1.78,2.35a5.65,5.65,0,0,0-.83,2.54,5.43,5.43,0,0,0,5.52,5.67c3.06-.25,5.12-3.17,6.6-5.86a72.85,72.85,0,0,0,8.89-26.55,10.94,10.94,0,0,0-.18-4.63c-1.06-3.36-4.66-5.11-7.93-6.4q-8.32-3.3-16.9-5.92a20.48,20.48,0,0,0-4.75-1,21.59,21.59,0,0,0-4.32.28l-16.55,2.17c-2.56.33-4.62-.08-3.71,3.06A8.79,8.79,0,0,0,273.19,133.71Z" transform="translate(5 824)"/><path class="t" d="M310.36,133.19a13.72,13.72,0,0,1,4.62,2.5c3.08,2.9,2.81,7.89,1.49,11.91S313,155.51,313,159.74c.63.55,1.52-.28,1.91-1a50.5,50.5,0,0,0,5.44-17.49,7.18,7.18,0,0,0-.58-4.72,7.54,7.54,0,0,0-3.3-2.48c-6.39-3.12-14.49-7.5-21.62-8.27C294.7,128.93,307.69,132.16,310.36,133.19Z" transform="translate(5 824)"/><path class="m" d="M319.16,116.22a7.1,7.1,0,0,0,1.9-.11c2.36-.55,3.69-3.26,6-3.94a.9.9,0,0,1,.96.36,7.94,7.94,0,0,0,1.16,1.23,1.55,1.55,0,0,0,1.58.25.88.88,0,0,0,.23-1.4,1.006,1.006,0,1,0,1.81-.88,1.073,1.073,0,0,0,1.99-.51c.06-.66-.46-1.2-.9-1.69-.65-.72-1.19-1.54-1.86-2.23a4.28,4.28,0,0,0-2.48-1.39,5.25,5.25,0,0,0-2.24.39,28.822,28.822,0,0,0-4.71,2.11,38.109,38.109,0,0,1-3.62,1.94,6.75,6.75,0,0,1-4,.54c-.83-.18-2,4.28-1.65,4.91s1.84.3,2.46.32Z" transform="translate(5 824)"/><path class="m" d="M324,64.42c.61,1,2,1.32,2.45,2.37a6.24,6.24,0,0,0-3.6,3.72c-.7,2-.42,4.44-1.86,6-1.3,1.4-3.5,1.48-5.34,1s-3.6-1.34-5.5-1.54a7.93,7.93,0,0,0-6.44,2.38c-.38.4-.83.89-1.37.79a1.57,1.57,0,0,1-.87-.7l-2.73-3.68a7.66,7.66,0,0,0,2-5.27c0-1.5-.48-3-.59-4.45-.37-5.44,4.34-10.28,9.64-11.57,4.14-1,11.1-.59,14.68,2S322.13,61.39,324,64.42Z" transform="translate(5 824)"/><path class="u" d="M320.52,58.59c.25.65-.66,1.14-1.36,1.14-1.36,0-2.67-.54-4-.65s-2.95.38-3.4,1.66a5.9,5.9,0,0,0,.12,2.7,2.12,2.12,0,0,1-1,2.35c-.75-1-.49-2.5-1.4-3.31a2.78,2.78,0,0,0-2.92,0,3.83,3.83,0,0,0-1.95,1.61c-.9,1.8.75,4,.08,5.94a4.8,4.8,0,0,1-1.14,1.65,6,6,0,0,1-1.94,1.52,2.21,2.21,0,0,1-2.32-.28c-1-1-.46-2.64-.72-4s-1.51-2.58-1.78-4a6.191,6.191,0,0,1,.2-2.42,19.16,19.16,0,0,1,2.12-5.88,13.82,13.82,0,0,1,8.19-5.84,23.75,23.75,0,0,1,10.21-.24,12.12,12.12,0,0,1,4.25,1.37c1.51.9,2.89,2.4,4.64,2.25a4.53,4.53,0,0,1-1.64.93,6.85,6.85,0,0,1,2.15,1.58,1.4,1.4,0,0,1-1.12.63,1.44,1.44,0,0,1-.89,2.2c-.74.08-1.57-.73-2.33-.84a6,6,0,0,1,.58.47C322.68,59.21,320.78,59.26,320.52,58.59Z" transform="translate(5 824)"/><path class="v" d="M308.53,67c0,.09-.13.14-.21.09a.48.48,0,0,1-.13-.23,1.73,1.73,0,0,1-.05-1,.62.62,0,0,1,.83-.38,1.47,1.47,0,0,0-.42-1.67,1.44,1.44,0,0,0-1.71-.06,2.42,2.42,0,0,0-.81,1.21,2.12,2.12,0,0,0-.18,1.18,2.82,2.82,0,0,0,.47.89l.69.94c.22.31.5.65.87.66a.84.84,0,0,0,.76-.72,2.14,2.14,0,0,0-.16-1.11" transform="translate(5 824)"/><path class="w" d="M322.85,65.65a3.38,3.38,0,0,1,1.93-.49,2.17,2.17,0,0,1,1.57,2.31,6.48,6.48,0,0,1-1.11,2.82c-.89,1.49-1.78,3-2.69,4.47a7.48,7.48,0,0,1-2.26,2.63,5.15,5.15,0,0,1-4.23.28,15.24,15.24,0,0,1-3.79-2.13c.05-.78.82-1.27,1.36-1.84a5.39,5.39,0,0,0,1.1-4.26c-.24-2.36,1.12-1.79,3-2.15a22.17,22.17,0,0,0,5.12-1.64Z" transform="translate(5 824)"/><path class="w" d="M310.24,64.75a50.834,50.834,0,0,0,5.53,3.54c.3.17.58-.3.27-.47a50.828,50.828,0,0,1-5.53-3.54C310.23,64.07,310,64.54,310.24,64.75Z" transform="translate(5 824)"/><path class="w" d="M304.52,69.61q4.39,3,8.62,6.15c.28.21.55-.26.27-.47q-4.23-3.18-8.62-6.14A.267.267,0,0,0,304.52,69.61Z" transform="translate(5 824)"/><path class="x" d="M316.23,71a3,3,0,0,1,.34-1.56,2.72,2.72,0,0,1,1.61-.82,12.53,12.53,0,0,0,3.05-1.27,1.2,1.2,0,0,1,.54-.21.843.843,0,0,1,.73.94,3.58,3.58,0,0,1-.47,1.25v.24c0,.09.11.15.18.21a1,1,0,0,1,.06,1.26,1.68,1.68,0,0,1-1.23.57c-.3,0-.67,0-.82.3a1,1,0,0,0-.07.42,3.22,3.22,0,0,1-2.48,3,2.469,2.469,0,0,1,.13.89.41.41,0,0,1-.11.32c-.14.12-.36,0-.52,0-1-.55-2.46-.85-2.11-2.14S316.23,72.28,316.23,71Z" transform="translate(5 824)"/><path class="q" d="M306.65,68.76a2.8,2.8,0,0,0,1.33-.34,2.65,2.65,0,0,0,.87-1c1.08-2,1.33-4.58,2.86-6.19,1.88-2,4.81-1.71,7.4-1.71a26.61,26.61,0,0,0,6.15-.75,2.75,2.75,0,0,0,1.06-.44,2.61,2.61,0,0,0,.78-2c.09-2.8-1.87-5.16-4-6.73a19.34,19.34,0,0,0-12.61-3.89A19.69,19.69,0,0,0,298.34,51a12.09,12.09,0,0,0-3.88,6.33,15.16,15.16,0,0,0,0,4.8,12.659,12.659,0,0,0,1,4.06C297.63,70.47,303,69,306.65,68.76Z" transform="translate(5 824)"/><path class="r" d="M303.54,47.78a14.53,14.53,0,0,0-7.14,4.92,8.68,8.68,0,0,0-1.23,8.3,3.36,3.36,0,0,0,1.71,1.89,3.1,3.1,0,0,0,3.18-.94c1.65-1.65,2.53-3.93,4.2-5.61,1.37-1.38,3.09-2,4.53-3.22a3.39,3.39,0,0,0,.86-4.31C308.4,46.67,305.51,47.1,303.54,47.78Z" transform="translate(5 824)"/><path class="y" d="M307.89,75.77v.25l-.17.15a5,5,0,0,1-1,.38,34,34,0,0,1-1.62-7.39,1.61,1.61,0,0,1,.05-.79c.17-.43,1.2-1,1.6-.65.24.24,0,2.3,0,2.7a18.439,18.439,0,0,0,1.14,5.35Z" transform="translate(5 824)"/><path class="z" d="M318.7,62.15a6.2,6.2,0,0,1,3.17-.65c.53,0,1.1-.15,1.11-.78l-.05-.06a7.65,7.65,0,0,0-1.06.07,5.93,5.93,0,0,0-1.33.05,3.17,3.17,0,0,0-2.07,1.14C318.37,62.08,318.56,62.22,318.7,62.15Z" transform="translate(5 824)"/><path class="z" d="M319,63.76a5.83,5.83,0,0,1,2.22-.53c.39-.06.85-.12,1.06-.49a.11.11,0,0,0-.12-.16c-.26.07-.48.23-.74.31s-.57.12-.86.19a4.75,4.75,0,0,0-1.57.67Z" transform="translate(5 824)"/><path class="z" d="M320.8,63.14c-.06.24-.22.84.17.91s.43-.57.38-.83l-.15-.15h-.05l-.17.07-.05.21v.12a.61.61,0,0,0-.06-.32Z" transform="translate(5 824)"/><path class="z" d="M319.92,64.05a1.58,1.58,0,0,0,.93.21c.24,0,.61-.07.73-.31l-.05-.08a3.475,3.475,0,0,0-.61.17,1.49,1.49,0,0,1-.93-.12C319.91,63.88,319.83,64,319.92,64.05Z" transform="translate(5 824)"/><path class="z" d="M320.58,64.64a.67.67,0,0,0,.42-.08v-.13h-.38a.107.107,0,0,0-.04.21Z" transform="translate(5 824)"/><g transform="translate(-16641.383 -18543.936)"><path class="d" d="M246.48,162.39a19.29,19.29,0,1,1-19.29,19.29,19.29,19.29,0,0,1,19.29-19.29m0,7.26a12,12,0,1,0,12,12,12,12,0,0,0-12-12" transform="translate(16646 19368)"/><path class="e" d="M246.48,195.32a13.65,13.65,0,1,1,13.65-13.64,13.65,13.65,0,0,1-13.65,13.64m0-31.31a17.729,17.729,0,1,0,0-.01" transform="translate(16646 19368)"/><path class="d" d="M244.13,177.4a4.5,4.5,0,0,1,1-.41l.64-8.41h1.43l.65,8.41a4.5,4.5,0,0,1,1,.41l6.41-5.49.5.5.51.51-5.49,6.4a5.129,5.129,0,0,1,.41,1l8.41.64v1.43l-8.41.65a5.312,5.312,0,0,1-.41,1l5.49,6.4-.51.51-.5.5L248.83,186a5,5,0,0,1-1,.41l-.65,8.41h-1.43l-.64-8.41a5,5,0,0,1-1-.41l-6.41,5.48-.5-.5-.51-.51,5.49-6.4a5.311,5.311,0,0,1-.41-1l-8.41-.65V181l8.41-.64a5.13,5.13,0,0,1,.41-1l-5.49-6.4.51-.51.5-.5Z" transform="translate(16646 19368)"/></g><path class="i" d="M246.41,147.39a36.622,36.622,0,0,1,36.3,31.738,4.31,4.31,0,0,1-4.281,4.882h-64a4.31,4.31,0,0,1-4.28-4.89,36.62,36.62,0,0,1,36.26-31.73Z" transform="translate(5 824)"/><path class="aa" d="M246.41,150.93a31.1,31.1,0,0,1,30.82,26.939,3.52,3.52,0,0,1-.88,2.9,2.755,2.755,0,0,1-.29.3,31.1,31.1,0,0,0-59.3,0,2.762,2.762,0,0,1-.29-.3,3.55,3.55,0,0,1-.88-2.9A31.1,31.1,0,0,1,246.41,150.93Z" transform="translate(5 824)"/></g></svg>