<?xml version="1.0" standalone="no"?>
<!DOCTYPE svg PUBLIC "-//W3C//DTD SVG 20010904//EN"
 "http://www.w3.org/TR/2001/REC-SVG-20010904/DTD/svg10.dtd">
<svg version="1.0" xmlns="http://www.w3.org/2000/svg"
 width="2057.000000pt" height="626.000000pt" viewBox="0 0 2057.000000 626.000000"
 preserveAspectRatio="xMidYMid meet">

<g transform="translate(0.000000,626.000000) scale(0.100000,-0.100000)"
fill="#000000" stroke="none">
<path d="M924 5951 c-43 -20 -80 -68 -86 -111 -2 -14 13 -60 32 -102 35 -76
57 -98 100 -98 14 0 28 -20 54 -75 19 -41 40 -75 47 -75 6 0 38 9 70 21 65 24
63 13 15 122 -24 52 -25 60 -12 85 35 69 27 141 -23 196 -51 56 -124 70 -197
37z"/>
<path d="M1470 5594 c0 -6 19 -60 43 -120 38 -100 42 -117 42 -199 0 -79 -4
-97 -28 -143 -88 -168 -287 -234 -453 -149 -89 45 -135 108 -187 252 -40 112
-47 128 -53 123 -7 -8 76 -228 101 -268 79 -123 232 -182 375 -146 177 45 297
225 260 391 -20 93 -100 299 -100 259z"/>
<path d="M19895 5546 c-128 -31 -236 -120 -297 -244 -32 -64 -33 -71 -33 -187
0 -114 2 -123 31 -185 162 -341 636 -347 802 -11 37 74 37 77 37 195 0 115 -2
124 -32 188 -90 191 -305 294 -508 244z m255 -102 c79 -35 160 -121 190 -201
30 -78 30 -178 1 -255 -24 -63 -94 -147 -152 -183 -143 -91 -334 -63 -453 66
-128 138 -132 342 -9 479 113 125 274 161 423 94z"/>
<path d="M19860 5130 l0 -210 45 0 45 0 0 75 0 75 28 0 c24 0 32 -9 65 -75
l39 -75 53 0 54 0 -41 73 c-22 39 -44 76 -48 81 -5 5 6 23 24 40 66 62 53 170
-24 208 -26 14 -60 18 -137 18 l-103 0 0 -210z m206 115 c16 -22 8 -65 -14
-82 -9 -7 -35 -13 -59 -13 l-43 0 0 61 0 62 52 -5 c34 -4 56 -12 64 -23z"/>
<path d="M2367 5351 c-35 -63 -48 -158 -36 -255 5 -41 34 -170 63 -286 l54
-210 -37 7 c-99 21 -141 11 -528 -132 -873 -323 -1000 -371 -1043 -400 -24
-16 -59 -49 -77 -73 l-32 -42 -117 231 c-101 201 -126 241 -181 299 -61 66
-147 118 -176 107 -7 -3 -3 -8 8 -12 92 -31 172 -101 234 -203 22 -37 81 -151
132 -254 l91 -187 -14 -38 c-9 -21 -18 -59 -22 -85 -13 -89 8 -150 149 -424
146 -284 181 -332 278 -378 47 -22 57 -32 76 -75 11 -27 21 -52 21 -55 0 -23
-197 30 -280 75 l-55 30 45 -41 c25 -22 77 -56 115 -76 111 -54 191 -68 410
-68 188 0 280 10 423 48 53 13 53 13 66 -13 30 -56 104 -101 168 -101 50 0
116 37 146 83 23 34 27 51 26 108 l0 67 63 31 c129 63 294 181 407 289 112
108 161 178 197 282 29 85 29 228 1 350 -47 196 -133 622 -128 627 3 4 6 1 6
-6 0 -7 15 -45 34 -84 102 -217 125 -277 155 -411 17 -77 33 -141 35 -144 6
-6 23 59 42 158 39 203 -15 505 -129 724 -57 110 -164 220 -231 238 -41 11
-51 19 -68 53 -21 40 -60 99 -98 145 -18 22 -17 18 5 -38 40 -99 78 -261 155
-653 40 -200 85 -418 102 -484 56 -223 49 -404 -19 -539 l-26 -51 -14 40 c-12
36 -12 44 8 90 42 97 38 158 -31 475 -34 156 -71 302 -82 324 -28 55 -100 129
-152 157 l-44 23 -58 231 c-69 276 -79 374 -45 469 11 32 27 66 36 76 17 18
19 30 7 30 -5 0 -21 -22 -35 -49z m78 -792 c73 -27 156 -103 184 -169 12 -27
49 -175 82 -327 67 -309 69 -343 23 -443 -34 -75 -198 -235 -330 -323 -187
-124 -412 -218 -645 -269 -88 -19 -134 -22 -299 -23 -222 0 -291 13 -373 68
-66 45 -87 78 -232 361 -119 230 -128 253 -133 315 -8 124 49 242 148 303 37
23 1080 416 1335 503 88 31 166 32 240 4z m310 -1064 c7 -40 5 -43 -64 -117
-144 -154 -399 -297 -716 -401 -232 -76 -350 -98 -565 -104 l-175 -5 -27 62
c-27 62 -27 62 -5 56 12 -3 73 -11 134 -18 260 -27 582 38 873 178 170 82 298
171 420 294 58 58 108 103 112 100 4 -3 10 -23 13 -45z"/>
<path d="M2224 4246 c-144 -47 -202 -197 -121 -317 56 -84 185 -106 284 -49
113 65 144 207 66 300 -53 63 -151 92 -229 66z m136 -68 c36 -18 49 -32 64
-70 17 -41 18 -53 7 -87 -23 -78 -109 -131 -188 -116 -46 8 -101 59 -113 104
-24 91 56 189 155 191 17 0 51 -10 75 -22z"/>
<path d="M2220 4157 c-33 -17 -70 -74 -70 -109 0 -98 116 -153 201 -95 46 31
61 63 55 117 -6 63 -48 100 -114 100 -26 0 -58 -6 -72 -13z m118 -29 c19 -19
14 -55 -9 -71 -25 -18 -56 -11 -70 15 -23 42 45 90 79 56z m-27 -181 c-5 -5
-17 -7 -26 -3 -14 5 -15 9 -5 21 10 12 16 13 27 4 9 -8 10 -16 4 -22z m-71 13
c0 -5 -4 -10 -10 -10 -5 0 -10 5 -10 10 0 6 5 10 10 10 6 0 10 -4 10 -10z"/>
<path d="M1155 3866 c-124 -57 -169 -192 -100 -297 85 -130 302 -111 375 32
23 45 26 125 6 172 -17 43 -76 93 -123 106 -59 17 -103 13 -158 -13z m162 -53
c98 -46 98 -193 1 -254 -26 -16 -46 -19 -95 -17 -53 3 -67 9 -93 33 -126 121
26 315 187 238z"/>
<path d="M1205 3803 c-106 -27 -130 -179 -35 -228 85 -44 200 22 200 115 0 75
-85 133 -165 113z m95 -48 c19 -23 4 -64 -27 -71 -14 -4 -33 -2 -42 3 -20 13
-26 50 -11 69 16 18 64 18 80 -1z m-30 -165 c0 -21 -24 -28 -35 -10 -8 14 3
30 21 30 8 0 14 -9 14 -20z"/>
<path d="M1890 3535 c-125 -51 -141 -78 -96 -177 34 -77 64 -101 134 -106 100
-7 177 50 189 138 7 47 -30 156 -58 170 -32 17 -82 10 -169 -25z m80 -135 c0
-5 -7 -10 -16 -10 -8 0 -12 5 -9 10 3 6 10 10 16 10 5 0 9 -4 9 -10z"/>
<path d="M8902 4669 c-100 -50 -162 -142 -162 -242 0 -29 154 -400 616 -1485
338 -796 626 -1463 639 -1483 46 -72 157 -97 257 -59 106 39 201 167 214 286
5 47 -15 98 -606 1479 -394 921 -621 1440 -638 1458 -77 82 -210 101 -320 46z"/>
<path d="M231 4122 c-25 -48 -45 -153 -37 -189 3 -15 8 -42 11 -59 3 -17 19
-57 36 -89 17 -32 37 -75 44 -94 11 -32 55 -126 163 -351 20 -41 35 -78 34
-82 -1 -5 3 -8 9 -8 5 0 8 -4 5 -9 -3 -5 27 -39 66 -76 80 -74 191 -135 246
-135 l33 0 -45 83 c-143 265 -498 955 -513 997 -10 27 -21 50 -25 50 -4 0 -16
-17 -27 -38z"/>
<path d="M7920 3464 c-623 -313 -677 -342 -707 -381 -54 -73 -55 -169 -2 -243
27 -37 85 -68 709 -380 737 -369 719 -361 808 -324 80 33 125 99 126 184 0 64
-27 124 -72 161 -16 13 -232 125 -480 249 -249 124 -452 228 -452 233 0 4 201
107 448 228 246 121 462 232 480 245 46 36 75 98 76 164 1 70 -27 125 -83 165
-34 24 -54 30 -109 33 l-68 4 -674 -338z"/>
<path d="M10529 3777 c-97 -52 -133 -182 -76 -279 14 -25 32 -50 40 -56 7 -6
224 -117 482 -246 l469 -234 -455 -227 c-249 -125 -469 -238 -487 -252 -121
-91 -93 -288 50 -347 88 -37 70 -44 808 324 628 314 682 343 709 381 54 74 53
168 -2 241 -30 40 -80 67 -702 380 -657 331 -671 337 -731 338 -45 0 -72 -6
-105 -23z"/>
<path d="M375 3234 c-14 -15 -16 -30 -12 -81 2 -35 2 -63 -2 -63 -11 0 -57 34
-127 93 -67 56 -102 68 -112 39 -2 -7 29 -47 70 -89 40 -41 69 -74 63 -71 -5
2 -45 21 -88 41 -88 42 -127 47 -127 18 0 -20 44 -52 129 -95 29 -15 51 -29
49 -31 -2 -2 -33 3 -68 11 -72 17 -121 15 -127 -3 -6 -18 48 -48 112 -63 31
-7 58 -17 61 -22 3 -4 -29 -8 -70 -8 -128 0 -111 -43 25 -65 46 -7 106 -21
133 -29 56 -18 138 -21 167 -6 10 6 19 7 19 2 0 -8 81 -74 117 -96 7 -4 1 15
-12 41 -14 27 -28 73 -31 103 -3 30 -12 69 -20 87 -8 17 -14 37 -14 43 0 7
-16 48 -35 91 -20 43 -39 98 -43 121 -8 48 -29 59 -57 32z"/>
<path d="M2386 2993 c4 -12 13 -28 20 -34 24 -20 23 -5 -2 26 -20 25 -22 26
-18 8z"/>
<path d="M2832 2969 c-54 -63 -102 -84 -202 -84 l-85 0 38 -34 c20 -18 53 -55
73 -82 37 -50 140 -130 290 -225 59 -36 80 -54 65 -54 -33 0 -61 -18 -61 -39
0 -13 16 -27 47 -42 81 -39 254 -26 430 32 75 25 103 55 103 111 0 78 -43 118
-129 118 -20 0 -63 12 -96 25 -101 42 -159 28 -122 -29 9 -13 32 -34 51 -46
42 -26 45 -36 11 -44 -47 -12 -175 70 -338 217 l-78 70 29 17 c34 21 46 57 33
93 -15 39 -24 38 -59 -4z"/>
<path d="M2427 2759 c-27 -16 -23 -80 8 -113 31 -33 56 -30 69 7 19 52 -37
128 -77 106z"/>
<path d="M1420 2741 c-5 -11 -10 -34 -10 -51 l0 -32 -115 4 c-110 3 -114 2
-120 -19 -12 -51 -189 -119 -277 -107 -27 3 -48 3 -48 0 0 -10 96 -55 143 -66
37 -10 50 -9 75 4 17 9 37 24 44 34 13 18 16 18 118 0 127 -23 384 -26 475 -5
l60 13 8 53 c4 30 6 55 5 57 -2 1 -25 -2 -51 -7 -91 -17 -199 28 -257 107 -29
39 -36 41 -50 15z"/>
<path d="M2711 2576 c-3 -216 -115 -397 -297 -477 -33 -14 -78 -23 -140 -26
-109 -7 -193 15 -289 72 -71 43 -95 64 -146 128 -47 59 -49 53 -8 -23 42 -79
115 -158 196 -214 67 -46 187 -95 230 -96 16 0 28 -12 43 -40 11 -21 20 -43
20 -49 0 -5 -29 -25 -64 -45 -35 -20 -66 -42 -69 -49 -7 -19 4 -37 22 -37 10
0 24 -15 33 -33 21 -45 64 -94 112 -128 47 -35 68 -38 39 -6 -48 51 -88 182
-66 213 7 11 285 169 389 222 40 20 41 20 72 2 38 -23 48 -41 56 -105 13 -106
-31 -234 -103 -297 -43 -38 -126 -77 -189 -88 -41 -8 -37 -9 33 -6 193 6 341
149 353 339 3 60 0 84 -23 147 -14 41 -29 90 -32 108 -3 19 -11 36 -18 38 -7
3 -42 -10 -76 -28 -35 -18 -67 -34 -72 -36 -4 -2 -17 17 -28 42 l-20 47 25 62
c14 35 30 85 36 112 16 68 13 219 -4 280 l-14 50 -1 -79z"/>
<path d="M5250 1224 c-19 -8 -45 -25 -58 -37 -52 -48 -52 -48 -52 -465 0 -408
0 -412 45 -412 43 0 45 12 45 272 l0 248 96 0 c111 0 134 9 134 50 0 41 -23
50 -134 50 l-96 0 0 71 c0 99 24 138 87 139 17 0 47 -9 65 -19 44 -25 78 -14
78 27 0 69 -123 114 -210 76z"/>
<path d="M3220 1171 c-115 -35 -180 -121 -180 -236 0 -71 23 -126 71 -172 54
-51 100 -65 236 -72 101 -5 126 -9 150 -27 84 -62 79 -171 -11 -238 -25 -19
-45 -21 -234 -26 l-207 -5 -3 -28 c-6 -55 3 -57 212 -57 105 0 207 5 227 10
52 15 99 49 133 98 26 37 31 55 34 116 4 63 0 80 -22 124 -49 97 -120 131
-274 132 -117 0 -159 14 -194 62 -46 66 -28 158 42 206 30 20 44 22 172 22 77
0 148 5 159 10 12 7 19 21 19 40 0 19 -7 33 -19 40 -22 11 -273 12 -311 1z"/>
<path d="M5937 1167 c-16 -11 -18 -41 -15 -379 3 -354 4 -368 24 -395 63 -85
172 -106 255 -50 28 19 34 29 34 57 0 29 -4 36 -23 38 -12 2 -42 -6 -66 -17
-36 -18 -48 -19 -75 -10 -54 19 -61 47 -61 244 l0 175 79 0 c71 0 82 2 95 22
20 29 20 34 -4 58 -16 16 -33 20 -95 20 l-75 0 0 109 c0 86 -3 113 -16 125
-19 19 -35 20 -57 3z"/>
<path d="M11520 1160 c-19 -19 -20 -33 -20 -419 0 -350 2 -402 16 -415 20 -20
48 -20 68 0 13 12 16 39 16 130 l0 114 215 0 215 0 0 -118 c0 -124 6 -142 45
-142 45 0 45 3 45 431 0 357 -2 410 -16 423 -18 19 -28 20 -55 6 -18 -10 -19
-24 -19 -255 l0 -245 -215 0 -215 0 0 238 c0 219 -2 240 -18 255 -24 22 -38
21 -62 -3z"/>
<path d="M4307 920 c-98 -25 -184 -100 -218 -190 -17 -43 -20 -71 -17 -130 10
-164 121 -276 286 -287 272 -19 427 302 248 514 -59 70 -207 116 -299 93z
m182 -123 c122 -81 134 -240 25 -336 -94 -82 -223 -71 -303 26 -84 102 -50
259 70 321 62 32 150 27 208 -11z"/>
<path d="M6686 914 c-9 -8 -16 -20 -16 -25 0 -24 204 -547 220 -563 33 -34 59
-10 130 123 36 66 68 121 72 121 3 0 37 -56 73 -125 68 -125 87 -145 122 -126
20 10 223 532 223 571 0 26 -45 48 -67 34 -13 -8 -61 -125 -177 -429 -8 -22
-20 -3 -98 148 -41 80 -72 103 -103 77 -8 -6 -42 -64 -76 -127 -33 -63 -62
-113 -64 -111 -2 2 -38 93 -80 203 -42 110 -83 210 -91 223 -17 26 -46 29 -68
6z"/>
<path d="M8127 916 c-226 -63 -300 -356 -131 -520 61 -60 117 -80 214 -81 86
0 142 18 193 63 16 14 17 13 17 -11 0 -32 24 -57 55 -57 41 0 47 28 43 213 -3
150 -6 178 -24 218 -65 140 -224 216 -367 175z m161 -102 c114 -47 164 -177
111 -290 -26 -55 -74 -93 -138 -110 -133 -34 -261 65 -261 202 0 65 10 92 52
139 60 69 155 93 236 59z"/>
<path d="M8986 914 c-14 -13 -16 -54 -16 -298 0 -206 3 -285 12 -294 16 -16
53 -15 66 1 6 7 12 84 14 177 3 154 5 169 28 215 32 61 112 115 171 115 62 0
87 64 37 91 -35 19 -178 -20 -209 -57 -18 -22 -29 -16 -29 16 0 44 -44 64 -74
34z"/>
<path d="M9927 920 c-85 -22 -163 -84 -205 -164 -22 -43 -26 -64 -26 -136 -1
-74 3 -92 26 -137 34 -64 85 -114 146 -145 68 -33 198 -33 262 1 86 44 121 96
88 129 -19 19 -47 14 -91 -18 -110 -77 -257 -45 -315 70 l-22 45 245 3 c245 2
245 2 260 26 11 17 14 36 9 67 -16 104 -87 199 -179 240 -52 23 -146 32 -198
19z m151 -106 c57 -24 122 -94 122 -134 0 -6 -68 -10 -205 -10 l-205 0 10 26
c41 107 171 163 278 118z"/>
<path d="M12797 916 c-99 -27 -184 -113 -213 -213 -41 -140 26 -290 161 -361
43 -23 62 -27 135 -27 97 0 146 19 213 84 65 61 91 123 91 216 1 99 -26 166
-91 226 -81 75 -195 104 -296 75z m171 -105 c84 -43 126 -116 120 -206 -13
-201 -267 -271 -382 -107 -40 57 -48 149 -18 208 55 107 183 155 280 105z"/>
<path d="M13636 917 c-16 -11 -17 -31 -14 -202 3 -179 4 -193 28 -238 82 -162
307 -218 450 -112 l35 26 3 -28 c5 -36 19 -53 46 -53 45 0 46 9 46 312 l0 288
-24 11 c-17 8 -29 8 -45 0 -20 -11 -21 -19 -21 -162 0 -172 -10 -222 -52 -273
-83 -101 -229 -105 -320 -9 -50 52 -58 88 -58 262 0 132 -3 162 -16 175 -19
19 -35 20 -58 3z"/>
<path d="M14794 911 c-119 -54 -147 -197 -57 -287 42 -42 86 -54 201 -54 85 0
95 -2 117 -25 32 -31 32 -75 1 -112 l-24 -28 -164 -3 c-136 -3 -165 -6 -175
-20 -17 -21 -16 -37 3 -56 13 -13 43 -16 177 -16 142 0 166 2 204 21 108 52
131 186 48 278 -43 48 -88 61 -204 61 -84 0 -94 2 -116 25 -16 15 -25 36 -25
55 0 19 9 40 25 55 23 24 30 25 140 25 132 0 155 7 155 50 0 42 -23 50 -152
50 -89 0 -122 -4 -154 -19z"/>
<path d="M15817 916 c-99 -27 -184 -113 -213 -213 -41 -143 29 -298 164 -365
68 -33 198 -33 262 1 86 44 121 96 88 129 -19 19 -46 14 -84 -15 -107 -81
-260 -49 -321 67 l-24 45 242 3 c285 3 285 3 274 87 -25 188 -209 312 -388
261z m161 -102 c47 -19 88 -58 113 -106 l19 -38 -210 0 -210 0 10 25 c18 48
44 77 94 106 59 33 124 38 184 13z"/>
</g>
</svg>
